<svg id="Layer_1" data-name="Layer 1" xmlns="http://www.w3.org/2000/svg" viewBox="0 0 971 261.53"><defs><style>.cls-1{fill:none;stroke:#fff;stroke-miterlimit:10;stroke-width:5px;}.cls-2{fill:#fff;}</style></defs><rect class="cls-1" x="2.5" y="2.5" width="966" height="256.53"/><path class="cls-2" d="M146.25,540h-38V365.5H191a56.94,56.94,0,0,1,21.75,4,46.65,46.65,0,0,1,16.63,11.38A51.38,51.38,0,0,1,240,398.5a65.84,65.84,0,0,1,3.75,22.75q0,17.76-7.87,31T212,471.5L246.25,540H204l-30.5-64H146.25Zm40-96c5.66,0,10.13-1.46,13.37-4.38s4.88-7.2,4.88-12.87v-11c0-5.66-1.62-10-4.88-12.87s-7.71-4.38-13.37-4.38h-40V444Z" transform="translate(-53.5 -320.74)"/><path class="cls-2" d="M309.25,365.5v107q0,18.51,7.25,27.62t24.25,9.13q17,0,24.25-9.13t7.25-27.62v-107h37v103q0,19.26-3.62,33.38t-11.88,23.24a49,49,0,0,1-21.25,13.5q-13,4.38-31.75,4.38T309,538.62a49,49,0,0,1-21.25-13.5q-8.25-9.12-11.87-23.24t-3.63-33.38v-103Z" transform="translate(-53.5 -320.74)"/><path class="cls-1" d="M511.75,540V506.5H435V474.25L503,365.5h44.5V477.25h22V506.5h-22V540ZM465,477.25h46.75v-73h-2.5Z" transform="translate(-53.5 -320.74)"/><path class="cls-2" d="M596.75,540V365.5H715.5v33.75H634.75v35.5H704V468.5H634.75v37.75H715.5V540Z" transform="translate(-53.5 -320.74)"/><path class="cls-2" d="M801.74,457.5,785,422.5h-.75V540H748.49V365.5H790L837.74,448l16.75,35h.75V365.5H891V540h-41.5Z" transform="translate(-53.5 -320.74)"/><path class="cls-2" d="M949,542.75q-11.25,0-16.62-5.63T927,522.75v-5q0-8.75,5.38-14.37T949,497.75q11.25,0,16.63,5.63T971,517.75v5q0,8.76-5.37,14.37T949,542.75Z" transform="translate(-53.5 -320.74)"/></svg>
